# xmcd
#
# Track frame offsets:
#	150
#	16367
#	31282
#	43115
#	58371
#	67874
#	82352
#	92809
#	109889
#	128485
#	148155
#	160662
#	173450
#	189751
#	203392
#	217116
#	230912
#	249037
#	265634
#
# Disc length: 3768 seconds
#
# Revision: 0
# Processed by: cddbd v1.5.1PL2 Copyright (c) Steve Scherf et al.
# Submitted via: dBpowerAMP V4.0
#
DISCID=020eb613
DTITLE=Various Artist - Various
DYEAR=1900
DGENRE=Cabaret
TTITLE0=W.Matuska, K.Gott - Co z toho mam
TTITLE1=Eva Pilarova - Ledove kvety
TTITLE2=Marta Kubisova - Co znamena mit rad
TTITLE3=Jiri Slitr - Co jsem mel dnes k obedu
TTITLE4=N.Urbankova, J.Grossmann - Drahy muj
TTITLE5=Karel Gott - Mesicni reka
TTITLE6=Petr Novak - Ja budu chodit po spickach
TTITLE7=Petra Cernocka - Koukej, se mnou si pisen broukej
TTITLE8=Helena Vondrackova - Malo mam lasky tve
TTITLE9=Vera Spinarova - Ja mam rad boogie
TTITLE10=Jan Kratochvilova - Kdybys umel to co saxofon
TTITLE11=W.Matuska, O.Blechova - Jen sa priznej, ze ti schazim
TTITLE12=K.Zich, L.Filipova - Mosty
TTITLE13=F.Ringo Cech - Ja uz jdu
TTITLE14=Jitka Zelenkova - Mit svuj kout
TTITLE15=Plavci - Inzenirska
TTITLE16=Lesek Semelka - Jednou vetou
TTITLE17=M.Mala, M.David - Kdyz se loucis
TTITLE18=Jiri Korn - Miss Moskva
EXTD=
EXTT0=
EXTT1=
EXTT2=
EXTT3=
EXTT4=
EXTT5=
EXTT6=
EXTT7=
EXTT8=
EXTT9=
EXTT10=
EXTT11=
EXTT12=
EXTT13=
EXTT14=
EXTT15=
EXTT16=
EXTT17=
EXTT18=
PLAYORDER=
